<svg width="220" height="43" viewBox="0 0 220 43" fill="none" xmlns="http://www.w3.org/2000/svg">
<g clip-path="url(#clip0_147_1183)">
<path fill-rule="evenodd" clip-rule="evenodd" d="M6.09499 25.2228C6.08636 25.5791 6.15781 25.9326 6.30379 26.2559C6.44976 26.5792 6.66634 26.8637 6.9367 27.0871C7.48743 27.5871 8.23405 27.8159 9.14106 27.8159C10.6329 27.8159 11.5725 27.3159 12.0267 26.2504C12.4809 25.2184 12.7081 23.9202 12.7081 22.3556C10.8273 22.3556 9.239 22.5233 7.9743 22.8221C6.74224 23.1223 6.09499 23.9211 6.09499 25.2184V25.2228ZM1.10147 17.8661C1.07499 16.8871 1.33507 15.9224 1.84808 15.0967C2.34768 14.3539 3.02922 13.7596 3.82392 13.3737C4.71634 12.9347 5.66654 12.6322 6.6443 12.4758C7.76837 12.2679 8.90878 12.1674 10.0509 12.1756C12.5462 12.1756 14.6541 12.6741 16.3389 13.7061C18.0578 14.706 18.8939 16.4756 18.8939 18.9987V28.9193C18.8867 29.2993 18.9191 29.679 18.9904 30.0519C19.0231 30.3187 19.121 30.6175 19.1849 30.9177H13.6179L13.3908 28.4879C12.6456 29.5199 11.7698 30.2851 10.701 30.7516C9.6634 31.2165 8.3987 31.4498 6.93954 31.4498C4.96229 31.4498 3.30867 30.9513 2.04538 29.9921C0.782101 29.033 0.161814 27.6876 0.161814 25.956C0.137078 24.6701 0.562695 23.4178 1.36122 22.4271C2.14525 21.4258 3.1911 20.6749 4.37607 20.2625C5.61448 19.7839 6.91406 19.4927 8.23405 19.3981C9.55884 19.264 11.0502 19.1974 12.7081 19.1984V17.5003C12.7081 16.9682 12.4483 16.4683 11.9983 15.9683C11.5441 15.5033 10.8316 15.2395 9.82664 15.2395C8.88698 15.2395 8.14037 15.5718 7.68615 16.1724C7.23336 16.7379 7.00625 17.3035 7.07155 17.8691L1.10147 17.8661Z" fill="#009BDF"/>
<path fill-rule="evenodd" clip-rule="evenodd" d="M32.1584 17.5673C32.1584 17.0017 31.866 16.5688 31.3152 16.2685C30.7645 15.9362 30.1158 15.8021 29.338 15.8021C28.4948 15.8021 27.8462 15.9362 27.4246 16.203C27.0357 16.4347 26.8412 16.8341 26.8412 17.4332C26.8412 18.162 28.1386 18.8325 30.6665 19.4637C33.1945 20.0948 35.1718 20.7624 36.5983 21.4956C38.0319 22.1938 38.7416 23.5261 38.7416 25.456C38.7416 27.3198 37.7367 28.7847 35.7268 29.8507C33.7564 30.911 31.5639 31.4614 29.3394 31.4541C26.6808 31.4541 24.5134 30.9556 22.759 29.9965C21.04 29.0315 20.1969 27.6001 20.1969 25.6367H25.9356C25.9356 26.3014 26.2593 26.8349 26.9079 27.2678C27.5552 27.6337 28.3671 27.8334 29.3394 27.8334C30.2138 27.8334 30.9268 27.6667 31.4785 27.3334C31.7445 27.1851 31.9647 26.9629 32.1138 26.6923C32.2628 26.4217 32.3349 26.1135 32.3216 25.8029C32.3216 25.3365 31.9965 24.9035 31.3166 24.5377C30.668 24.1383 29.3067 23.7389 27.2642 23.306C25.2217 22.8731 23.5737 22.3075 22.3048 21.5743C21.0727 20.8455 20.424 19.5438 20.424 17.646C20.424 15.9158 21.3637 14.585 23.2444 13.6186C25.1383 12.6562 27.2264 12.1658 29.3394 12.1872C31.8347 12.1872 33.8446 12.6245 35.4017 13.4845C36.9588 14.3445 37.7353 15.6826 37.7353 17.5804L32.1584 17.5673Z" fill="#009BDF"/>
<path fill-rule="evenodd" clip-rule="evenodd" d="M46.6166 20.0628L46.6804 20.1299L52.8081 12.5065H59.7462L52.581 20.4636L60.199 30.9163H52.9372L46.6804 20.9301L46.6166 21.0292V30.9163H40.3924V4.75043H46.6166V20.0628Z" fill="#009BDF"/>
<path fill-rule="evenodd" clip-rule="evenodd" d="M66.6502 25.2228C66.6502 25.9895 66.9086 26.6221 67.4607 27.0871C68.0115 27.5871 68.7567 27.8159 69.6651 27.8159C71.1555 27.8159 72.1278 27.316 72.582 26.2504C73.0078 25.2184 73.2307 23.9182 73.2307 22.3557C71.3499 22.3557 69.7943 22.5233 68.4983 22.8221C67.2682 23.1224 66.6531 23.9211 66.6531 25.2184L66.6502 25.2228ZM61.6255 17.8662C61.6255 16.7686 61.8838 15.8692 62.3707 15.0967C62.8836 14.3529 63.5763 13.7591 64.3806 13.3738C65.2695 12.9255 66.2211 12.6225 67.201 12.4759C68.3133 12.2696 69.4418 12.1691 70.5721 12.1756C73.1015 12.1756 75.1753 12.6741 76.8615 13.7061C78.579 14.706 79.4548 16.4756 79.4548 18.9987V28.9194C79.4388 29.2982 79.4606 29.6777 79.5201 30.0519C79.584 30.3187 79.6493 30.6175 79.7458 30.9178H74.1377L73.9432 28.4864C73.2541 29.4718 72.3238 30.2527 71.2463 30.7501C70.1761 31.2151 68.944 31.4483 67.4536 31.4483C65.4764 31.4483 63.8554 30.9498 62.5907 29.9907C61.326 29.0316 60.6858 27.6877 60.6858 25.956C60.6597 24.6712 61.0827 23.4192 61.8782 22.4271C62.6749 21.4399 63.7166 20.6921 64.893 20.2625C66.1324 19.7875 67.4315 19.4964 68.751 19.3981C70.1136 19.264 71.605 19.1975 73.225 19.1984V17.5003C73.225 16.9683 72.9979 16.4683 72.5153 15.9683C72.0895 15.5033 71.3797 15.2395 70.3762 15.2395C69.4039 15.2395 68.6914 15.5719 68.2045 16.1724C67.7503 16.738 67.5558 17.3035 67.5885 17.8691L61.6255 17.8662Z" fill="#009BDF"/>
<path fill-rule="evenodd" clip-rule="evenodd" d="M87.3979 12.7061L87.527 15.9975C88.1757 14.6667 89.1154 13.7673 90.2821 13.2688C91.4815 12.7353 92.9407 12.5021 94.6909 12.5021V17.2962H91.994C91.4005 17.3044 90.8154 17.4405 90.2765 17.6956C89.7751 17.9226 89.3233 18.2507 88.9479 18.6606C88.6594 19.1116 88.4406 19.6057 88.2992 20.1255C88.1875 20.7063 88.1333 21.2972 88.1374 21.8892V30.9119H81.9771L81.9132 16.3356L81.7188 12.7076L87.3979 12.7061Z" fill="#009BDF"/>
<path fill-rule="evenodd" clip-rule="evenodd" d="M102.828 12.7061V30.9163H96.6369V12.7061H102.828Z" fill="#009BDF"/>
<path fill-rule="evenodd" clip-rule="evenodd" d="M99.6986 10.508H99.7653C100.767 10.4842 101.72 10.0575 102.419 9.31987C103.117 8.58219 103.506 7.59239 103.502 6.5633C103.497 5.53421 103.1 4.54801 102.395 3.81676C101.69 3.0855 100.733 2.6676 99.7312 2.65289C98.7292 2.66783 97.773 3.08594 97.068 3.81732C96.3631 4.54871 95.9657 5.53495 95.9614 6.56402C95.9572 7.59308 96.3463 8.58277 97.0451 9.32031C97.744 10.0578 98.6967 10.4843 99.6986 10.508Z" fill="url(#paint0_linear_147_1183)"/>
<path fill-rule="evenodd" clip-rule="evenodd" d="M110.868 21.4621C110.868 23.7943 111.419 25.7228 112.52 27.2212C113.622 28.7196 115.438 29.4514 117.934 29.4514C120.107 29.4514 121.624 28.6861 122.537 27.0871C123.445 25.5231 123.9 23.6588 123.9 21.5612C123.9 19.5308 123.413 17.8006 122.375 16.3342C121.37 14.9043 119.749 14.1711 117.578 14.1711C115.306 14.1711 113.621 14.8702 112.52 16.2686C111.42 17.6669 110.869 19.3981 110.868 21.4621ZM110.737 30.9163H108.182C108.182 30.3843 108.215 29.6511 108.279 28.6526C108.343 27.6541 108.377 27.0492 108.377 26.8218V4.75043H110.874V15.4028L110.97 15.4698C111.72 14.3867 112.754 13.5442 113.951 13.04C115.251 12.4668 116.652 12.1722 118.067 12.1741C120.952 12.1741 123.091 13.106 124.486 14.9699C125.905 16.8342 126.592 19.0658 126.592 21.7289C126.592 24.3526 125.912 26.6221 124.486 28.552C123.125 30.4834 121.017 31.4483 118.196 31.4483C116.791 31.4611 115.399 31.1664 114.113 30.584C112.891 30.0123 111.815 29.1576 110.969 28.087L110.872 28.2197L110.742 30.9163H110.737Z" fill="#A7A9AC"/>
<path fill-rule="evenodd" clip-rule="evenodd" d="M135.699 29.4514C138.163 29.4514 139.816 28.7517 140.626 27.3538C141.502 25.956 141.923 24.0917 141.923 21.7289H140.141C137.482 21.7289 135.315 21.9941 133.591 22.4941C131.907 22.9926 131.036 24.1252 131.036 25.8219C131.036 27.0215 131.491 27.9209 132.366 28.552C133.241 29.1511 134.375 29.4514 135.705 29.4514H135.699ZM141.923 18.0658C141.923 16.668 141.498 15.6695 140.626 15.0704C139.816 14.4713 138.584 14.1711 136.995 14.1711C135.576 14.1711 134.402 14.4043 133.462 14.8999C132.586 15.3372 132.068 16.1651 131.901 17.2962H129.242C129.566 15.5645 130.409 14.2673 131.77 13.435C133.164 12.6027 134.916 12.1697 137.022 12.1697C139.421 12.1697 141.269 12.6347 142.501 13.6011C143.766 14.5661 144.413 16.098 144.413 18.1941V26.8174C144.413 27.45 144.446 28.2488 144.478 29.2808C144.575 30.2793 144.608 30.8449 144.608 30.9119H142.053L141.956 28.2153L141.762 28.482C141.275 29.2808 140.432 29.979 139.207 30.5796C137.962 31.1487 136.615 31.4432 135.252 31.4439C133.275 31.4439 131.622 30.945 130.293 29.947C128.995 28.947 128.347 27.5827 128.347 25.8175C128.332 24.6659 128.737 23.5502 129.482 22.6894C130.201 21.7722 131.155 21.0803 132.237 20.6925C133.3 20.2758 134.412 20.0071 135.545 19.8937C136.814 19.7511 138.091 19.6839 139.368 19.6926C139.661 19.6926 140.017 19.7261 140.439 19.7261H141.931V18.0658H141.923Z" fill="#A7A9AC"/>
<path fill-rule="evenodd" clip-rule="evenodd" d="M149.638 30.9162H147.143V16.8006C147.143 16.1694 147.11 15.3692 147.012 14.3386C146.948 13.3402 146.948 12.7732 146.948 12.7061H149.503L149.632 15.4027L149.698 15.4698C150.366 14.4059 151.309 13.5532 152.421 13.0064C153.557 12.4394 154.788 12.1741 156.214 12.1741C159.164 12.1741 161.108 12.9393 162.081 14.5063C163.043 15.9957 163.551 17.7461 163.54 19.5336V30.9192H161.044V19.1649C161.044 17.5994 160.558 16.3677 159.585 15.5033C158.644 14.6039 157.314 14.171 155.598 14.171C153.619 14.171 152.128 14.7701 151.124 15.9683C150.119 17.1679 149.632 18.6314 149.632 20.4301V30.9162H149.638Z" fill="#A7A9AC"/>
<path fill-rule="evenodd" clip-rule="evenodd" d="M167.923 20.1299L178.004 12.7062H181.18L170.645 20.5628L181.991 30.9163H178.847L167.923 21.0627V30.9163H165.459V4.75043H167.923V20.1299Z" fill="#A7A9AC"/>
<path d="M181.732 34.3592H0V33.8651H181.732V34.3592Z" fill="#231F20"/>
<path fill-rule="evenodd" clip-rule="evenodd" d="M161.439 43V38.8049H161.795V42.6676H163.87V43H161.439Z" fill="#808285"/>
<path fill-rule="evenodd" clip-rule="evenodd" d="M164.356 43V38.8049H164.712V43H164.356Z" fill="#808285"/>
<path fill-rule="evenodd" clip-rule="evenodd" d="M165.621 43V38.8049H166.204L167.728 42.4679L169.315 38.8049H169.868V43H169.511V39.1387L167.923 43H167.565L166.01 39.1387L165.977 43H165.621Z" fill="#808285"/>
<path fill-rule="evenodd" clip-rule="evenodd" d="M170.58 43V38.8049H170.938V43H170.58Z" fill="#808285"/>
<path fill-rule="evenodd" clip-rule="evenodd" d="M172.817 39.1723H171.489V38.8049H174.471V39.1723H173.173V43H172.817V39.1723Z" fill="#808285"/>
<path fill-rule="evenodd" clip-rule="evenodd" d="M174.989 43V38.8049H177.42V39.1723H175.346V40.6692H177.324V41.003H175.346V42.6676H177.486V43H174.989Z" fill="#808285"/>
<path fill-rule="evenodd" clip-rule="evenodd" d="M179.527 42.672C180.079 42.672 180.5 42.5044 180.759 42.2056C181.017 41.9068 181.148 41.4768 181.148 40.9068C181.148 40.3092 180.986 39.8748 180.662 39.576C180.338 39.3088 179.884 39.1757 179.301 39.1766H178.716V42.6749L179.527 42.672ZM179.463 38.8093C180.111 38.8093 180.63 38.9769 181.024 39.3428C181.38 39.7101 181.542 40.2086 181.542 40.9068C181.542 41.605 181.38 42.1065 181.024 42.4723C180.668 42.8382 180.117 43.0044 179.463 43.0044H178.327V38.8049L179.463 38.8093Z" fill="#808285"/>
<path fill-rule="evenodd" clip-rule="evenodd" d="M213.624 19.5016H213.757H216.061L210.067 10.1669V14.139L213.624 19.5016Z" fill="url(#paint1_linear_147_1183)"/>
<path fill-rule="evenodd" clip-rule="evenodd" d="M207.256 0.988281V41.3587L205.442 40.4258V1.78269L207.256 0.988281Z" fill="#77787B"/>
<path fill-rule="evenodd" clip-rule="evenodd" d="M205.451 41.4462L203.254 40.3355L200.348 37.1739L202.324 37.5062L205.451 41.4462Z" fill="url(#paint2_linear_147_1183)"/>
<path fill-rule="evenodd" clip-rule="evenodd" d="M202.324 22.4985H200.348V37.1739L202.324 37.5062V22.4985Z" fill="url(#paint3_linear_147_1183)"/>
<path fill-rule="evenodd" clip-rule="evenodd" d="M200.348 11.0167V18.3005H202.324V8.88715L200.348 11.0167Z" fill="url(#paint4_linear_147_1183)"/>
<path fill-rule="evenodd" clip-rule="evenodd" d="M202.324 8.97022V18.3836H194.026L202.33 8.97022H202.324ZM205.447 -2.18279e-05V41.5278L202.324 37.5922V22.5786H193.859L201.407 31.285V36.5019L186.688 20.7595L205.451 -0.00439453L205.447 -2.18279e-05Z" fill="url(#paint5_radial_147_1183)"/>
<path fill-rule="evenodd" clip-rule="evenodd" d="M184.834 20.9723H186.688L205.451 0.2099L203.2 0.876036L184.834 20.9723Z" fill="url(#paint6_linear_147_1183)"/>
<path fill-rule="evenodd" clip-rule="evenodd" d="M199.67 36.4188H201.407L186.688 20.6808H184.834L199.67 36.4188Z" fill="url(#paint7_linear_147_1183)"/>
<path fill-rule="evenodd" clip-rule="evenodd" d="M213.891 22.7259L210.067 28.4194V32.6276L216.586 22.7259H213.891Z" fill="url(#paint8_linear_147_1183)"/>
<path fill-rule="evenodd" clip-rule="evenodd" d="M216.478 22.7258H210.065V32.5167L216.477 22.7258H216.478ZM207.252 0.988259V41.3602L219.994 21.0991L207.256 0.983887L207.252 0.988259ZM210.063 10.1713L216.057 19.5001H210.065V10.1669L210.063 10.1713Z" fill="url(#paint9_radial_147_1183)"/>
</g>
<defs>
<linearGradient id="paint0_linear_147_1183" x1="99.7616" y1="9.82453" x2="98.5038" y2="2.09127" gradientUnits="userSpaceOnUse">
<stop offset="0.17" stop-color="#D71920"/>
<stop offset="0.83" stop-color="#FFCB05"/>
</linearGradient>
<linearGradient id="paint1_linear_147_1183" x1="212.172" y1="9.96199" x2="212.172" y2="19.2815" gradientUnits="userSpaceOnUse">
<stop stop-color="#9D9FA2"/>
<stop offset="1" stop-color="#A7A9AC"/>
</linearGradient>
<linearGradient id="paint2_linear_147_1183" x1="200.907" y1="38.174" x2="203.413" y2="39.3646" gradientUnits="userSpaceOnUse">
<stop offset="0.04" stop-color="#00AEEF"/>
<stop offset="0.96" stop-color="#0091BF"/>
</linearGradient>
<linearGradient id="paint3_linear_147_1183" x1="199.473" y1="29.7659" x2="201.448" y2="29.7659" gradientUnits="userSpaceOnUse">
<stop stop-color="#0083B8"/>
<stop offset="1" stop-color="#00AEE6"/>
</linearGradient>
<linearGradient id="paint4_linear_147_1183" x1="198.223" y1="12.637" x2="202.72" y2="14.0607" gradientUnits="userSpaceOnUse">
<stop offset="0.16" stop-color="#0083B8"/>
<stop offset="0.84" stop-color="#00AEE6"/>
</linearGradient>
<radialGradient id="paint5_radial_147_1183" cx="0" cy="0" r="1" gradientUnits="userSpaceOnUse" gradientTransform="translate(202.509 21.3713) scale(20.9969 21.5621)">
<stop stop-color="#36C0E0"/>
<stop offset="1" stop-color="#0091BF"/>
</radialGradient>
<linearGradient id="paint6_linear_147_1183" x1="183.904" y1="0.100505" x2="205.177" y2="20.1055" gradientUnits="userSpaceOnUse">
<stop stop-color="#0083B8"/>
<stop offset="1" stop-color="#0091BF"/>
</linearGradient>
<linearGradient id="paint7_linear_147_1183" x1="184.151" y1="36.3564" x2="200.778" y2="20.7207" gradientUnits="userSpaceOnUse">
<stop stop-color="#00AEE6"/>
<stop offset="1" stop-color="#0091BF"/>
</linearGradient>
<linearGradient id="paint8_linear_147_1183" x1="207.908" y1="25.1763" x2="217.05" y2="29.5206" gradientUnits="userSpaceOnUse">
<stop offset="0.09" stop-color="#9D9FA2"/>
<stop offset="0.91" stop-color="#A7A9AC"/>
</linearGradient>
<radialGradient id="paint9_radial_147_1183" cx="0" cy="0" r="1" gradientUnits="userSpaceOnUse" gradientTransform="translate(206.5 23.7713) scale(22.3755 22.9778)">
<stop stop-color="#A7A9AC"/>
<stop offset="1" stop-color="#77787B"/>
</radialGradient>
<clipPath id="clip0_147_1183">
<rect width="220" height="43" fill="white"/>
</clipPath>
</defs>
</svg>
